<?xml version="1.0" encoding="UTF-8" standalone="no"?>
<!-- Created with Inkscape (http://www.inkscape.org/) -->

<svg
   width="40"
   height="40"
   viewBox="0 0 10.583333 10.583333"
   version="1.1"
   id="svg1"
   inkscape:version="1.3 (1:1.3+202307231459+0e150ed6c4)"
   sodipodi:docname="stackrats_icon_light.svg"
   xmlns:inkscape="http://www.inkscape.org/namespaces/inkscape"
   xmlns:sodipodi="http://sodipodi.sourceforge.net/DTD/sodipodi-0.dtd"
   xmlns="http://www.w3.org/2000/svg"
   xmlns:svg="http://www.w3.org/2000/svg">
  <sodipodi:namedview
     id="namedview1"
     pagecolor="#505050"
     bordercolor="#ffffff"
     borderopacity="1"
     inkscape:showpageshadow="0"
     inkscape:pageopacity="0"
     inkscape:pagecheckerboard="1"
     inkscape:deskcolor="#505050"
     inkscape:document-units="px"
     inkscape:zoom="20.329042"
     inkscape:cx="14.19152"
     inkscape:cy="21.81608"
     inkscape:window-width="3840"
     inkscape:window-height="2309"
     inkscape:window-x="0"
     inkscape:window-y="0"
     inkscape:window-maximized="1"
     inkscape:current-layer="layer1" />
  <defs
     id="defs1" />
  <g
     inkscape:label="Layer 1"
     inkscape:groupmode="layer"
     id="layer1">
    <g
       id="g47"
       transform="matrix(0.26458333,0,0,0.26458333,-181.96216,-131.08909)"
       style="display:inline"
       inkscape:label="Icon">
      <path
         id="path1-2-9"
         style="display:inline;fill:#f89e1c;fill-opacity:1"
         d="m 697.9302,500.10487 c -0.28123,9.9e-4 -0.56059,0.11001 -0.77539,0.32422 l -4.44141,4.43945 c -0.21466,0.21594 -0.32226,0.49859 -0.32226,0.78125 0,0.28265 0.1076,0.5653 0.32226,0.78125 l 3.92578,3.92383 c 1.23617,1.50531 0.90764,3.90908 -0.19922,5.66797 -0.51619,0.82025 -0.79006,1.15283 -1.49023,1.80469 l -4.43945,4.43945 c -0.82093,0.82558 -1.23047,1.90449 -1.23047,2.98438 0,1.07988 0.40953,2.16074 1.23047,2.98632 l 4.43945,4.43946 c 0.82498,0.81927 1.90221,1.22948 2.98047,1.23047 1.07826,-9.9e-4 2.15548,-0.4112 2.98047,-1.23047 0,0 3.65748,-4.04603 4.00781,-4.38867 0.35035,-0.34266 0.88991,-0.70011 1.58594,-0.81055 -0.18145,-0.0247 -0.67795,-0.16796 -1.03125,-0.15235 -0.3533,0.0156 -0.69198,-0.007 -1.32618,0.37696 -0.63419,0.38379 -4.21679,3.99412 -4.21679,3.99414 -0.55386,0.55029 -1.27598,0.82713 -2,0.82812 -0.72402,-9.9e-4 -1.44614,-0.27783 -2,-0.82812 l -4.43945,-4.43946 c -0.55104,-0.55439 -0.82568,-1.27908 -0.82618,-2.0039 v -0.002 c 5e-4,-0.72482 0.27514,-1.44952 0.82618,-2.00391 l 4.43945,-4.43945 c 0.55386,-0.55028 1.27598,-0.82519 2,-0.82618 0.72402,9.9e-4 1.44615,0.2759 2,0.82618 l 4.43945,4.43945 c 0.24793,0.24794 0.69408,0.29202 0.98438,0.002 0.2903,-0.29031 0.24426,-0.73448 -0.004,-0.98242 l -4.43945,-4.43945 c -0.70016,-0.65186 -0.97406,-0.98444 -1.49024,-1.80469 -1.10686,-1.7589 -1.43538,-4.16268 -0.19922,-5.66797 l 3.92578,-3.92383 c 0.21465,-0.21594 0.32227,-0.49858 0.32227,-0.78125 0,-0.28264 -0.10762,-0.56531 -0.32227,-0.78125 l -4.4414,-4.43945 c -0.21479,-0.21423 -0.49415,-0.32322 -0.77539,-0.32422 z"
         inkscape:label="A" />
      <path
         id="path1-2-9-5"
         style="display:inline;fill:#2b2e31;fill-opacity:1"
         d="m 723.07669,505.65635 c -9.9e-4,-0.28123 -0.11001,-0.56059 -0.32422,-0.77539 l -4.43945,-4.44141 c -0.21594,-0.21466 -0.49859,-0.32226 -0.78125,-0.32226 -0.28265,0 -0.5653,0.1076 -0.78125,0.32226 l -3.92383,3.92578 c -1.50531,1.23617 -3.90908,0.90764 -5.66797,-0.19922 -0.82024,-0.51619 -1.15283,-0.79006 -1.80469,-1.49023 l -4.43945,-4.43945 c -0.82557,-0.82093 -1.90449,-1.23047 -2.98438,-1.23047 -1.07988,0 -2.16072,0.40953 -2.98631,1.23047 l -4.43945,4.43945 c -0.81929,0.82498 -1.2295,1.9022 -1.23048,2.98046 9.9e-4,1.07826 0.4112,2.15549 1.23048,2.98047 0,0 4.04602,3.65748 4.38866,4.00781 0.34266,0.35035 0.7001,0.88991 0.81055,1.58594 0.0247,-0.18145 0.16796,-0.67795 0.15234,-1.03125 -0.0156,-0.3533 0.007,-0.69197 -0.37694,-1.32618 -0.3838,-0.63419 -3.99414,-4.21679 -3.99415,-4.21679 -0.55029,-0.55385 -0.82713,-1.27598 -0.82812,-2 9.9e-4,-0.72401 0.27783,-1.44614 0.82812,-2 l 4.43946,-4.43944 c 0.55439,-0.55104 1.27908,-0.82569 2.0039,-0.82618 h 0.002 c 0.72482,4.9e-4 1.44952,0.27513 2.00391,0.82618 l 4.43945,4.43944 c 0.55028,0.55386 0.82519,1.27599 0.82618,2 -9.9e-4,0.72402 -0.27589,1.44615 -0.82618,2 l -4.43945,4.43945 c -0.24794,0.24793 -0.29202,0.69408 -0.002,0.98438 0.29031,0.2903 0.73448,0.24427 0.98242,-0.004 l 4.43946,-4.43945 c 0.65185,-0.70016 0.98443,-0.97406 1.80468,-1.49024 1.7589,-1.10685 4.16268,-1.43538 5.66797,-0.19921 l 3.92383,3.92578 c 0.21594,0.21465 0.49859,0.32227 0.78125,0.32227 0.28264,0 0.56532,-0.10762 0.78125,-0.32227 l 4.43945,-4.4414 c 0.21423,-0.21479 0.32322,-0.49415 0.32422,-0.77539 z"
         inkscape:label="B" />
      <path
         id="path1-2-9-04"
         style="display:inline;fill:#f89e1c;fill-opacity:1"
         d="m 717.53177,530.80478 c 0.28123,-9.9e-4 0.56059,-0.11001 0.77539,-0.32422 l 4.44141,-4.43945 c 0.21466,-0.21594 0.32226,-0.49859 0.32226,-0.78125 0,-0.28265 -0.1076,-0.5653 -0.32226,-0.78125 l -3.92578,-3.92383 c -1.23617,-1.50531 -0.90764,-3.90908 0.19922,-5.66796 0.51619,-0.82025 0.79006,-1.15283 1.49023,-1.8047 l 4.43944,-4.43945 c 0.82093,-0.82557 1.23047,-1.90449 1.23047,-2.98437 0,-1.07989 -0.40953,-2.16075 -1.23047,-2.98632 l -4.43944,-4.43947 c -0.82498,-0.81926 -1.90221,-1.22947 -2.98047,-1.23046 -1.07826,9.9e-4 -2.15548,0.4112 -2.98047,1.23046 0,0 -3.65748,4.04603 -4.00781,4.38868 -0.35035,0.34266 -0.88991,0.70011 -1.58594,0.81055 0.18145,0.0247 0.67795,0.16796 1.03125,0.15235 0.3533,-0.0156 0.69198,0.007 1.32618,-0.37697 0.63419,-0.38379 4.21679,-3.99411 4.21679,-3.99414 0.55386,-0.55029 1.27598,-0.82713 2,-0.82812 0.72402,9.9e-4 1.44614,0.27783 2,0.82812 l 4.43945,4.43946 c 0.55103,0.5544 0.82568,1.27909 0.82618,2.00391 v 0.002 c -5e-4,0.72483 -0.27514,1.44952 -0.82618,2.00392 l -4.43945,4.43944 c -0.55386,0.55029 -1.27598,0.82519 -2,0.82618 -0.72402,-9.9e-4 -1.44615,-0.27589 -2,-0.82618 l -4.43945,-4.43944 c -0.24793,-0.24794 -0.69408,-0.29202 -0.98438,-0.002 -0.2903,0.29031 -0.24426,0.73448 0.004,0.98242 l 4.43945,4.43945 c 0.70016,0.65186 0.97406,0.98444 1.49024,1.80469 1.10686,1.7589 1.43538,4.16268 0.19922,5.66797 l -3.92579,3.92383 c -0.21465,0.21594 -0.32227,0.49857 -0.32227,0.78125 0,0.28264 0.10762,0.5653 0.32227,0.78125 l 4.44141,4.43945 c 0.21479,0.21423 0.49415,0.32321 0.77539,0.32421 z"
         inkscape:label="C" />
      <path
         id="path1-2-9-5-6"
         style="display:inline;fill:#2b2e31;fill-opacity:1"
         d="m 692.38528,525.2533 c 9.9e-4,0.28123 0.11001,0.56059 0.32422,0.77539 l 4.43945,4.44141 c 0.21594,0.21466 0.49859,0.32226 0.78125,0.32226 0.28264,0 0.56529,-0.1076 0.78125,-0.32226 l 3.92382,-3.92577 c 1.50531,-1.23618 3.90908,-0.90765 5.66797,0.19921 0.82025,0.5162 1.15283,0.79007 1.80469,1.49023 l 4.43945,4.43945 c 0.82559,0.82093 1.9045,1.23047 2.98439,1.23047 1.07988,0 2.16072,-0.40953 2.98632,-1.23047 l 4.43944,-4.43945 c 0.81929,-0.82498 1.2295,-1.9022 1.23049,-2.98046 -9.9e-4,-1.07826 -0.4112,-2.15549 -1.23048,-2.98046 0,0 -4.04602,-3.65748 -4.38866,-4.00781 -0.34266,-0.35035 -0.70011,-0.88991 -0.81055,-1.58594 -0.0247,0.18145 -0.16796,0.67795 -0.15235,1.03125 0.0156,0.35329 -0.007,0.69196 0.37695,1.32618 0.3838,0.63419 3.99413,4.21678 3.99415,4.21678 0.55029,0.55385 0.82713,1.27598 0.82812,2 -9.9e-4,0.72401 -0.27783,1.44614 -0.82812,2 l -4.43946,4.43944 c -0.55439,0.55104 -1.27908,0.82569 -2.0039,0.82618 h -0.002 c -0.72482,-4.9e-4 -1.44952,-0.27513 -2.00391,-0.82618 l -4.43945,-4.43944 c -0.55028,-0.55386 -0.82519,-1.27599 -0.82618,-2 9.9e-4,-0.72402 0.27589,-1.44615 0.82618,-2 l 4.43945,-4.43944 c 0.24794,-0.24793 0.29202,-0.69408 0.002,-0.98438 -0.2903,-0.2903 -0.73447,-0.24428 -0.98242,0.004 l -4.43946,4.43945 c -0.65185,0.70015 -0.98443,0.97406 -1.80468,1.49023 -1.7589,1.10685 -4.16268,1.43538 -5.66797,0.19921 l -3.92382,-3.92578 c -0.21595,-0.21465 -0.4986,-0.32227 -0.78125,-0.32227 -0.28265,0 -0.56533,0.10762 -0.78125,0.32227 l -4.43945,4.4414 c -0.21424,0.21479 -0.32322,0.49415 -0.32422,0.7754 z"
         inkscape:label="D" />
    </g>
  </g>
</svg>
